# xmcd
#
# Track frame offsets: 
#        150
#        5539
#        29816
#        41364
#        55683
#        66905
#        84294
#        103447
#        117879
#        141634
#        155125
#        164394
#        173007
#        189313
#        199031
#        207175
#        229978
#        239620
#        243426
#        253615
#        264102
#        277596
#        292755
#        312473
#        341861
#
# Disc length: 4676 seconds
#
# Revision: 0
# Processed by: cddbd v1.5.2PL0 Copyright (c) Steve Scherf et al.
# Submitted via: ExactAudioCopy v0.99pb5
#
DISCID=6c124219
DTITLE=Beyoncé - I Am...World Tour
DYEAR=2010
DGENRE=R&B
TTITLE0=Intro
TTITLE1=Crazy In Love
TTITLE2=Naughty Girl
TTITLE3=Freakum Dress
TTITLE4=Get Me Bodied
TTITLE5=Smash Into You
TTITLE6=Ave Maria
TTITLE7=Broken-hearted Girl
TTITLE8=If I Were a Boy, You Oughta Know
TTITLE9=Diva
TTITLE10=Radio
TTITLE11=Ego (f. Kanye West)
TTITLE12=Hello
TTITLE13=Baby Boy
TTITLE14=You Don't Love Me, No No No
TTITLE15=Irreplaceable
TTITLE16=Check On It
TTITLE17=Bootylicious
TTITLE18=Upgrade U
TTITLE19=Say My Name
TTITLE20=At Last
TTITLE21=Listen
TTITLE22=Single Ladies (Put a Ring On It)
TTITLE23=Halo
TTITLE24=Outro
EXTD=
EXTT0=
EXTT1=
EXTT2=
EXTT3=
EXTT4=
EXTT5=
EXTT6=
EXTT7=
EXTT8=
EXTT9=
EXTT10=
EXTT11=
EXTT12=
EXTT13=
EXTT14=
EXTT15=
EXTT16=
EXTT17=
EXTT18=
EXTT19=
EXTT20=
EXTT21=
EXTT22=
EXTT23=
EXTT24=
PLAYORDER=
